HIERARCHY
ROOT Hips
{
 OFFSET 0.000000 0.000000 0.000000
 CHANNELS 6 Xposition Yposition Zposition Yrotation Xrotation Zrotation
 JOINT Chest
 {
  OFFSET 0.000000 9.585900 0.002600
  CHANNELS 3 Yrotation Xrotation Zrotation
  JOINT Chest2
  {
   OFFSET 0.000000 9.601200 -0.005300
   CHANNELS 3 Yrotation Xrotation Zrotation
   JOINT Chest3
   {
    OFFSET 0.000000 9.561800 0.000000
    CHANNELS 3 Yrotation Xrotation Zrotation
    JOINT Chest4
    {
     OFFSET 0.000000 9.552100 0.000000
     CHANNELS 3 Yrotation Xrotation Zrotation
     JOINT Neck
     {
      OFFSET 0.000000 14.453000 0.000000
      CHANNELS 3 Yrotation Xrotation Zrotation
      JOINT Head
      {
       OFFSET 0.000000 8.936500 -0.011300
       CHANNELS 3 Yrotation Xrotation Zrotation
       End Site
       {
        OFFSET 0.000000 17.073600 -0.006000
       }
      }
     }
     JOINT RightCollar
     {
      OFFSET -2.921100 9.558500 0.000000
      CHANNELS 3 Yrotation Xrotation Zrotation
      JOINT RightShoulder
      {
       OFFSET -13.519700 0.000000 0.000000
       CHANNELS 3 Yrotation Xrotation Zrotation
       JOINT RightElbow
       {
        OFFSET 0.000000 -29.696600 0.000000
        CHANNELS 3 Yrotation Xrotation Zrotation
        JOINT RightWrist
        {
         OFFSET 0.000000 -24.004700 0.000000
         CHANNELS 3 Yrotation Xrotation Zrotation
         End Site
         {
          OFFSET 0.000000 -17.728500 0.000000
         }
        }
       }
      }
     }
     JOINT LeftCollar
     {
      OFFSET 2.921100 9.558500 0.000000
      CHANNELS 3 Yrotation Xrotation Zrotation
      JOINT LeftShoulder
      {
       OFFSET 13.519700 0.000000 0.000000
       CHANNELS 3 Yrotation Xrotation Zrotation
       JOINT LeftElbow
       {
        OFFSET 0.000000 -29.696600 0.000000
        CHANNELS 3 Yrotation Xrotation Zrotation
        JOINT LeftWrist
        {
         OFFSET 0.000000 -24.004700 0.000000
         CHANNELS 3 Yrotation Xrotation Zrotation
         End Site
         {
          OFFSET 0.000000 -17.728500 0.000000
         }
        }
       }
      }
     }
    }
   }
  }
 }
 JOINT RightHip
 {
  OFFSET -7.771700 -0.012900 -0.001300
  CHANNELS 3 Yrotation Xrotation Zrotation
  JOINT RightKnee
  {
   OFFSET 0.000000 -40.869800 0.001200
   CHANNELS 3 Yrotation Xrotation Zrotation
   JOINT RightAnkle
   {
    OFFSET 0.000000 -39.717900 0.002100
    CHANNELS 3 Yrotation Xrotation Zrotation
    JOINT RightToe
    {
     OFFSET 0.000000 -4.965400 11.033500
     CHANNELS 3 Yrotation Xrotation Zrotation
     End Site
     {
      OFFSET 0.000000 -1.423100 5.872300
     }
    }
   }
  }
 }
 JOINT LeftHip
 {
  OFFSET 7.771700 -0.012900 -0.001300
  CHANNELS 3 Yrotation Xrotation Zrotation
  JOINT LeftKnee
  {
   OFFSET 0.000000 -40.869800 0.001200
   CHANNELS 3 Yrotation Xrotation Zrotation
   JOINT LeftAnkle
   {
    OFFSET 0.000000 -39.717900 0.002100
    CHANNELS 3 Yrotation Xrotation Zrotation
    JOINT LeftToe
    {
     OFFSET 0.000000 -4.965400 11.033500
     CHANNELS 3 Yrotation Xrotation Zrotation
     End Site
     {
      OFFSET 0.000000 -1.423100 5.872300
     }
    }
   }
  }
 }
}
MOTION
Frames: 5
Frame Time: 0.008333
0.000000 85.388000 0.000000 0.000000 -5.767877 0.000000 0.000000 11.653817 0.000000 0.000000 -5.885947 0.000000 0.000000 -0.000000 0.000000 0.000000 -0.000000 0.000000 0.000000 12.528835 0.000000 0.000000 0.711642 0.000000 0.000000 -0.000000 0.000000 0.000000 0.000000 -90.000000 0.000000 -2.309062 0.000000 0.000000 2.309062 0.000000 0.000000 -0.000000 0.000000 0.000000 -0.000000 90.000000 0.000000 -2.309062 0.000000 0.000000 2.309062 0.000000 0.000000 8.520406 0.000000 0.000000 1.905762 0.000000 -0.000000 -4.658285 0.000000 0.000000 -0.000000 0.000000 0.000000 8.520406 0.000000 0.000000 1.905762 0.000000 -0.000000 -4.658285 0.000000 0.000000 -0.000000 0.000000
-3.993692 52.136032 32.468906 170.300897 -38.211816 -1.948793 4.357394 22.773206 2.385002 0.506782 3.314070 0.406648 0.831472 5.351848 0.672360 3.368173 19.095215 2.853760 1.212269 16.305802 -0.512009 2.431424 -5.494062 -1.378457 -2.142648 -0.271632 -2.476160 1.592546 -19.128856 2.809552 155.329216 -70.447092 -146.456774 1.276482 -15.226604 -11.844320 -7.171985 -0.902839 -0.419088 1.181149 -21.180789 2.326349 -173.229362 -74.463988 171.256977 2.306014 -10.974958 6.078015 -5.113749 -42.967993 3.304516 -146.212644 86.519858 -140.931153 1.473929 -10.656745 -4.494987 0.409436 -0.647460 0.183028 1.164490 -39.595491 6.310610 73.252652 83.933095 63.179662 -5.424811 -13.265973 9.966808 0.164534 1.463950 0.099760
-3.983153 52.138739 32.451879 170.267396 -38.295454 -1.971243 4.397660 22.791689 2.446416 0.502212 3.303961 0.405998 0.824203 5.336489 0.671298 3.346178 19.073865 2.851110 1.283924 16.524263 -0.534390 2.567698 -5.086172 -1.439764 -2.013074 -0.220159 -2.434114 1.863661 -19.871542 2.725417 152.955525 -71.693519 -144.436730 1.290003 -14.897506 -11.044387 -7.273249 -0.911657 -0.421897 0.749632 -21.743593 2.250198 -169.721307 -75.871806 168.356094 2.179887 -11.494851 6.201232 -5.128478 -42.878484 3.351667 -146.594121 86.518579 -141.305900 1.506402 -10.657936 -4.504059 0.376182 -0.663288 0.170575 1.144010 -39.516224 6.354596 73.572152 83.936116 63.529942 -5.406731 -13.263320 9.923542 0.174491 1.436550 0.098880
-3.983040 52.136955 32.436742 170.292927 -38.344769 -1.973600 4.355488 22.781186 2.441415 0.509242 3.329156 0.399116 0.804367 5.284769 0.677324 3.320373 19.051932 2.849551 1.337959 16.693000 -0.561181 2.714585 -4.605508 -1.518881 -1.877892 -0.151465 -2.387916 2.175615 -20.649696 2.613417 150.076205 -73.020722 -141.910889 1.302320 -14.650629 -10.371598 -7.370212 -0.912470 -0.428341 0.216605 -22.281836 2.158811 -164.725792 -77.225349 164.105107 1.972072 -11.921085 6.368599 -5.137479 -42.827838 3.324215 -147.043095 86.508932 -141.751206 1.507150 -10.677210 -4.515638 0.379409 -0.668734 0.170978 1.123155 -39.465909 6.328354 73.748103 83.928306 63.713902 -5.411272 -13.261259 9.900327 0.189480 1.430917 0.103097
-3.982660 52.131551 32.425928 170.291857 -38.364587 -1.969607 4.327385 22.745009 2.441423 0.522045 3.348822 0.393406 0.776906 5.239393 0.683390 3.290628 19.030986 2.849019 1.411711 16.948663 -0.600034 2.834665 -4.206934 -1.600853 -1.740913 -0.072389 -2.337017 2.519658 -21.466686 2.471131 146.567335 -74.410680 -138.731158 1.300907 -14.489910 -9.872485 -7.462347 -0.902704 -0.434974 -0.382798 -22.816775 2.031664 -158.097656 -78.460073 158.294519 1.686951 -12.183107 6.577017 -5.150346 -42.810851 3.319719 -147.455690 86.503620 -142.166237 1.518758 -10.695382 -4.528337 0.366554 -0.664947 0.168551 1.100662 -39.448404 6.306038 74.012334 83.901509 63.989834 -5.404858 -13.271274 9.867913 0.187567 1.436567 0.101067
